HIERARCHY
ROOT Hips
{
    OFFSET 0.000000 0.000000 0.000000
    CHANNELS 6 Xposition Yposition Zposition Zrotation Yrotation Xrotation
    JOINT Chest
    {
        OFFSET 0.000000 1.634758 -0.000000
        CHANNELS 3 Zrotation Yrotation Xrotation
        JOINT Chest2
        {
            OFFSET 0.000000 2.197341 0.000000
            CHANNELS 3 Zrotation Yrotation Xrotation
            JOINT Neck
            {
                OFFSET 0.000000 0.961544 0.000000
                CHANNELS 3 Zrotation Yrotation Xrotation
                JOINT Head
                {
                    OFFSET 0.000000 0.632542 -0.032565
                    CHANNELS 3 Zrotation Yrotation Xrotation
                    End Site
                    {
                        OFFSET -0.000001 0.439502 2.922845
                    }
                }
            }
            JOINT LeftCollar
            {
                OFFSET 0.167536 0.778237 -0.168280
                CHANNELS 3 Zrotation Yrotation Xrotation
                JOINT LeftShoulder
                {
                    OFFSET 0.831514 -0.002900 0.006458
                    CHANNELS 3 Zrotation Yrotation Xrotation
                    JOINT LeftElbow
                    {
                        OFFSET 2.272872 -0.026639 0.059314
                        CHANNELS 3 Zrotation Yrotation Xrotation
                        JOINT LeftWrist
                        {
                            OFFSET 2.081982 -0.024402 0.054333
                            CHANNELS 3 Zrotation Yrotation Xrotation
                            JOINT LeftHandThumb1
                            {
                                OFFSET 0.218903 -0.128645 0.283837
                                CHANNELS 3 Zrotation Yrotation Xrotation
                                JOINT LeftHandThumb2
                                {
                                    OFFSET 0.137157 -0.025101 0.077902
                                    CHANNELS 3 Zrotation Yrotation Xrotation
                                    JOINT LeftHandThumb3
                                    {
                                        OFFSET 0.165094 -0.079256 0.001271
                                        CHANNELS 3 Zrotation Yrotation Xrotation
                                        End Site
                                        {
                                            OFFSET 0.239583 -0.099512 -0.067333
                                        }
                                    }
                                }
                            }
                            JOINT LeftHandFore1
                            {
                                OFFSET 0.767340 -0.016076 0.196678
                                CHANNELS 3 Zrotation Yrotation Xrotation
                                JOINT LeftHandFore2
                                {
                                    OFFSET 0.186626 -0.109301 0.014809
                                    CHANNELS 3 Zrotation Yrotation Xrotation
                                    JOINT LeftHandFore3
                                    {
                                        OFFSET 0.056038 -0.116053 0.012424
                                        CHANNELS 3 Zrotation Yrotation Xrotation
                                        End Site
                                        {
                                            OFFSET 0.017888 -0.191706 0.017196
                                        }
                                    }
                                }
                            }
                            JOINT LeftHandMiddle1
                            {
                                OFFSET 0.709887 -0.008320 0.018526
                                CHANNELS 3 Zrotation Yrotation Xrotation
                                JOINT LeftHandMiddle2
                                {
                                    OFFSET 0.212861 -0.121147 0.008800
                                    CHANNELS 3 Zrotation Yrotation Xrotation
                                    JOINT LeftHandMiddle3
                                    {
                                        OFFSET 0.048154 -0.137918 0.006551
                                        CHANNELS 3 Zrotation Yrotation Xrotation
                                        End Site
                                        {
                                            OFFSET 0.034097 -0.233126 0.010956
                                        }
                                    }
                                }
                            }
                            JOINT LeftHandRing1
                            {
                                OFFSET 0.743817 -0.005823 -0.153668
                                CHANNELS 3 Zrotation Yrotation Xrotation
                                JOINT LeftHandRing2
                                {
                                    OFFSET 0.316358 -0.156528 -0.012257
                                    CHANNELS 3 Zrotation Yrotation Xrotation
                                    JOINT LeftHandRing3
                                    {
                                        OFFSET 0.035137 -0.131726 -0.004361
                                        CHANNELS 3 Zrotation Yrotation Xrotation
                                        End Site
                                        {
                                            OFFSET -0.033581 -0.115011 -0.008023
                                        }
                                    }
                                }
                            }
                            JOINT LeftHandLittle1
                            {
                                OFFSET 0.689408 -0.053302 -0.308304
                                CHANNELS 3 Zrotation Yrotation Xrotation
                                JOINT LeftHandLittle2
                                {
                                    OFFSET 0.169066 -0.095866 -0.016741
                                    CHANNELS 3 Zrotation Yrotation Xrotation
                                    JOINT LeftHandLittle3
                                    {
                                        OFFSET 0.063024 -0.102165 -0.009308
                                        CHANNELS 3 Zrotation Yrotation Xrotation
                                        End Site
                                        {
                                            OFFSET 0.057454 -0.181564 -0.004706
                                        }
                                    }
                                }
                            }
                        }
                    }
                }
            }
            JOINT RightCollar
            {
                OFFSET -0.167536 0.778237 -0.168280
                CHANNELS 3 Zrotation Yrotation Xrotation
                JOINT RightShoulder
                {
                    OFFSET -0.831514 -0.002900 0.006457
                    CHANNELS 3 Zrotation Yrotation Xrotation
                    JOINT RightElbow
                    {
                        OFFSET -2.272872 -0.026639 0.059313
                        CHANNELS 3 Zrotation Yrotation Xrotation
                        JOINT RightWrist
                        {
                            OFFSET -2.081982 -0.024402 0.054331
                            CHANNELS 3 Zrotation Yrotation Xrotation
                            JOINT RightHandThumb1
                            {
                                OFFSET -0.218911 -0.128571 0.283837
                                CHANNELS 3 Zrotation Yrotation Xrotation
                                JOINT RightHandThumb2
                                {
                                    OFFSET -0.137157 -0.025101 0.077902
                                    CHANNELS 3 Zrotation Yrotation Xrotation
                                    JOINT RightHandThumb3
                                    {
                                        OFFSET -0.157028 -0.093616 0.010846
                                        CHANNELS 3 Zrotation Yrotation Xrotation
                                        End Site
                                        {
                                            OFFSET -0.188552 -0.190363 -0.006827
                                        }
                                    }
                                }
                            }
                            JOINT RightHandFore1
                            {
                                OFFSET -0.767344 -0.015991 0.196679
                                CHANNELS 3 Zrotation Yrotation Xrotation
                                JOINT RightHandFore2
                                {
                                    OFFSET -0.186655 -0.109260 0.014806
                                    CHANNELS 3 Zrotation Yrotation Xrotation
                                    JOINT RightHandFore3
                                    {
                                        OFFSET -0.056465 -0.116418 0.004553
                                        CHANNELS 3 Zrotation Yrotation Xrotation
                                        End Site
                                        {
                                            OFFSET -0.018617 -0.192379 0.003225
                                        }
                                    }
                                }
                            }
                            JOINT RightHandMiddle1
                            {
                                OFFSET -0.709887 -0.008302 0.018525
                                CHANNELS 3 Zrotation Yrotation Xrotation
                                JOINT RightHandMiddle2
                                {
                                    OFFSET -0.167475 -0.178658 0.009781
                                    CHANNELS 3 Zrotation Yrotation Xrotation
                                    JOINT RightHandMiddle3
                                    {
                                        OFFSET -0.005432 -0.146133 -0.000096
                                        CHANNELS 3 Zrotation Yrotation Xrotation
                                        End Site
                                        {
                                            OFFSET 0.035865 -0.233089 -0.003621
                                        }
                                    }
                                }
                            }
                            JOINT RightHandRing1
                            {
                                OFFSET -0.743819 -0.005785 -0.153669
                                CHANNELS 3 Zrotation Yrotation Xrotation
                                JOINT RightHandRing2
                                {
                                    OFFSET -0.221103 -0.274415 -0.023302
                                    CHANNELS 3 Zrotation Yrotation Xrotation
                                    JOINT RightHandRing3
                                    {
                                        OFFSET 0.000375 -0.135107 -0.018732
                                        CHANNELS 3 Zrotation Yrotation Xrotation
                                        End Site
                                        {
                                            OFFSET 0.038737 -0.112720 -0.014621
                                        }
                                    }
                                }
                            }
                            JOINT RightHandLittle1
                            {
                                OFFSET -0.689403 -0.053298 -0.308303
                                CHANNELS 3 Zrotation Yrotation Xrotation
                                JOINT RightHandLittle2
                                {
                                    OFFSET -0.175323 -0.083822 -0.017050
                                    CHANNELS 3 Zrotation Yrotation Xrotation
                                    JOINT RightHandLittle3
                                    {
                                        OFFSET -0.069987 -0.097509 -0.009449
                                        CHANNELS 3 Zrotation Yrotation Xrotation
                                        End Site
                                        {
                                            OFFSET -0.068738 -0.176478 -0.020473
                                        }
                                    }
                                }
                            }
                        }
                    }
                }
            }
        }
    }
    JOINT LeftHip
    {
        OFFSET 0.685143 0.673822 -0.044491
        CHANNELS 3 Zrotation Yrotation Xrotation
        JOINT LeftKnee
        {
            OFFSET 0.085364 -3.750208 0.017676
            CHANNELS 3 Zrotation Yrotation Xrotation
            JOINT LeftAnkle
            {
                OFFSET 0.094583 -4.155206 0.019585
                CHANNELS 3 Zrotation Yrotation Xrotation
                JOINT LeftToe
                {
                    OFFSET -0.000000 -0.395925 0.621478
                    CHANNELS 3 Zrotation Yrotation Xrotation
                    End Site
                    {
                        OFFSET -0.000000 -0.077878 0.321152
                    }
                }
            }
        }
    }
    JOINT RightHip
    {
        OFFSET -0.685143 0.673822 -0.044492
        CHANNELS 3 Zrotation Yrotation Xrotation
        JOINT RightKnee
        {
            OFFSET -0.085364 -3.750208 0.017677
            CHANNELS 3 Zrotation Yrotation Xrotation
            JOINT RightAnkle
            {
                OFFSET -0.094583 -4.155206 0.019585
                CHANNELS 3 Zrotation Yrotation Xrotation
                JOINT RightToe
                {
                    OFFSET -0.000000 -0.395925 0.621478
                    CHANNELS 3 Zrotation Yrotation Xrotation
                    End Site
                    {
                        OFFSET -0.000000 -0.077878 0.321152
                    }
                }
            }
        }
    }
}
MOTION
Frames: 4
Frame Time: 0.033333
0.144995 8.235283 -0.247222 3.178957 34.089378 5.056565 -0.403130 0.865561 -6.981719 0.008559 -0.134558 -3.645285 0.000002 0.134816 4.684115 0.000006 -0.000024 11.067138 -14.096078 -0.547677 -0.035194 -56.769970 6.869319 1.625445 0.039824 -19.562927 -0.238373 20.289965 5.442091 -7.265806 -0.000004 0.000003 0.000000 -0.000003 0.000002 -0.000002 -0.000003 0.000003 0.000002 -0.000002 0.000003 0.000003 -0.000002 0.000003 0.000000 -0.000002 0.000003 -0.000002 -0.000002 0.000001 0.000000 -0.000003 -0.000001 0.000000 0.000003 0.000003 0.000002 -0.000006 0.000002 0.000000 -0.000002 -0.000001 0.000000 0.000002 0.000001 -0.000002 -0.000000 0.000003 0.000000 -0.000003 0.000007 -0.000003 0.000003 -0.000005 0.000000 13.852670 -0.772154 0.035432 55.464630 -12.305552 0.066161 -0.041627 19.971056 -0.243764 7.678041 0.850759 2.642267 -0.000001 0.000002 0.000003 0.000002 -0.000004 -0.000002 -0.000004 -0.000000 -0.000005 -0.000003 -0.000002 -0.000003 -0.000001 -0.000004 -0.000003 -0.000002 -0.000000 0.000003 0.000000 -0.000001 -0.000007 0.000000 0.000001 0.000002 -0.000005 0.000003 -0.000003 0.000001 -0.000004 -0.000003 0.000000 0.000001 -0.000002 0.000001 0.000001 0.000002 -0.000003 -0.000000 -0.000002 0.000002 -0.000000 0.000000 0.000001 0.000003 -0.000003 -41.176792 -21.721319 -58.564117 0.003903 0.100799 4.432827 5.594563 16.935980 52.306004 -0.000003 -0.000009 -0.000007 -22.563028 -34.610500 -64.597450 -0.003370 -0.093703 4.120080 -0.933401 -17.827166 54.419254 -0.000000 0.000002 -0.000003
0.144993 8.235286 -0.247227 3.178957 34.089314 5.056565 -0.403109 0.865599 -6.981720 0.008583 -0.134565 -3.645276 0.000001 0.134837 4.684105 0.000005 -0.000009 11.067125 -14.096074 -0.547687 -0.035198 -56.770016 6.869308 1.625385 0.039825 -19.563013 -0.238381 20.289967 5.442091 -7.265808 -0.000006 0.000003 0.000012 0.000030 -0.000091 -0.000022 0.000102 -0.000272 -0.000183 0.000044 0.000019 0.000003 0.000432 0.000065 0.000061 0.000188 0.000032 0.000029 0.000029 -0.000002 0.000002 0.000668 0.000017 -0.000007 0.000203 0.000002 -0.000002 -0.000164 0.000027 0.000015 0.000660 -0.000062 -0.000106 0.000301 -0.000014 -0.000058 0.000049 -0.000009 -0.000003 0.000128 -0.000031 -0.000032 0.000209 -0.000017 -0.000055 13.852623 -0.772118 0.035434 55.464615 -12.305641 0.066212 -0.041628 19.971403 -0.243767 7.678041 0.850712 2.642260 0.000014 0.000022 -0.000017 0.000000 -0.000006 -0.000002 -0.000003 0.000003 -0.000005 0.000000 0.000006 -0.000002 -0.000003 -0.000003 -0.000002 0.000001 0.000001 -0.000002 0.000007 0.000002 -0.000003 -0.000002 0.000001 0.000000 -0.000002 0.000003 -0.000002 0.000021 0.000008 0.000003 -0.000003 0.000002 0.000003 0.000001 -0.000003 -0.000003 0.000003 0.000006 0.000002 -0.000004 -0.000001 -0.000005 0.000001 0.000003 0.000003 -41.176807 -21.721237 -58.564159 0.003903 0.100796 4.432825 5.594576 16.935947 52.306004 -0.000001 0.000007 0.000010 -22.562944 -34.610443 -64.596062 -0.003365 -0.093641 4.117330 -0.933821 -17.827148 54.420628 0.000000 -0.000001 0.000015
0.144985 8.235293 -0.247241 3.178957 34.089314 5.056565 -0.403040 0.865625 -6.981717 0.008656 -0.134569 -3.645277 0.000002 0.134845 4.684093 0.000005 -0.000014 11.067089 -14.096110 -0.547731 -0.035198 -56.770176 6.868569 1.625155 0.039837 -19.561831 -0.238359 20.289970 5.442090 -7.265804 -0.000014 0.000007 0.000009 0.000124 -0.000383 -0.000123 0.000404 -0.001097 -0.000726 0.000201 0.000056 0.000009 0.001772 0.000271 0.000258 0.000765 0.000116 0.000114 0.000108 0.000013 0.000000 0.002701 0.000066 -0.000014 0.000808 0.000021 -0.000005 -0.000670 0.000105 0.000061 0.002574 -0.000244 -0.000406 0.001210 -0.000051 -0.000231 0.000170 -0.000043 -0.000022 0.000488 -0.000124 -0.000126 0.000832 -0.000064 -0.000208 13.852601 -0.772057 0.035434 55.464485 -12.305832 0.066331 -0.041625 19.972179 -0.243779 7.678042 0.850573 2.642245 0.000010 0.000015 -0.000015 0.000000 -0.000003 0.000002 -0.000003 -0.000003 0.000000 0.000000 0.000003 0.000009 0.000004 -0.000000 0.000003 -0.000001 -0.000001 -0.000003 0.000012 -0.000004 0.000000 -0.000003 0.000001 0.000002 -0.000003 -0.000001 0.000000 0.000021 0.000006 0.000009 -0.000003 -0.000001 -0.000003 0.000001 -0.000001 0.000000 0.000014 0.000003 0.000010 -0.000001 -0.000001 -0.000003 -0.000004 -0.000003 0.000000 -41.176933 -21.721100 -58.564209 0.003903 0.100805 4.432988 5.594597 16.935795 52.305965 0.000004 0.000010 0.000003 -22.562954 -34.610340 -64.593140 -0.003355 -0.093515 4.111825 -0.934653 -17.827261 54.423409 0.000000 -0.000002 -0.000005
0.144972 8.235306 -0.247264 3.178957 34.089314 5.056565 -0.402927 0.865679 -6.981712 0.008773 -0.134584 -3.645272 0.000002 0.134845 4.684065 0.000006 -0.000034 11.067035 -14.096189 -0.547803 -0.035204 -56.770382 6.867622 1.624780 0.039821 -19.560461 -0.238341 20.289965 5.442090 -7.265804 -0.000017 0.000005 -0.000009 0.000281 -0.000865 -0.000282 0.000905 -0.002471 -0.001629 0.000477 0.000109 0.000012 0.003969 0.000598 0.000574 0.001737 0.000260 0.000256 0.000272 0.000005 -0.000007 0.006068 0.000143 -0.000036 0.001807 0.000048 -0.000019 -0.001474 0.000215 0.000121 0.005763 -0.000542 -0.000907 0.002724 -0.000125 -0.000528 0.000399 -0.000105 -0.000063 0.001108 -0.000277 -0.000282 0.001858 -0.000138 -0.000470 13.852552 -0.771956 0.035439 55.464306 -12.306202 0.066523 -0.041645 19.973553 -0.243801 7.678044 0.850341 2.642215 0.000011 0.000014 -0.000003 0.000002 -0.000003 0.000000 -0.000003 -0.000000 -0.000002 0.000008 0.000002 0.000002 0.000000 -0.000002 -0.000002 -0.000001 -0.000003 0.000002 0.000020 0.000003 -0.000003 -0.000002 -0.000000 -0.000005 0.000001 -0.000003 -0.000002 0.000018 0.000012 0.000005 0.000002 0.000001 0.000000 -0.000001 0.000001 -0.000002 0.000004 0.000004 0.000009 -0.000001 -0.000000 0.000002 -0.000001 -0.000002 -0.000003 -41.177135 -21.720886 -58.564182 0.003904 0.100806 4.432988 5.594659 16.935535 52.306030 -0.000005 -0.000003 0.000000 -22.563105 -34.610142 -64.587967 -0.003339 -0.093297 4.102173 -0.936102 -17.827570 54.428314 0.000000 -0.000001 0.000009
